<svg height="11" width="15" xmlns:xlink="http://www.w3.org/1999/xlink" xmlns="http://www.w3.org/2000/svg" viewBox="0 0 15 11">
    <path fill="#bcbcbc" fill-rule="evenodd" d="M 10.68 4.88 C 10.68 4.88 14.99 1 14.99 1 C 14.99 1 14.99 10.16 14.99 10.16 C 14.99 10.16 10.68 4.88 10.68 4.88 Z M 0.87 0 C 0.87 0 14.06 0 14.06 0 C 14.06 0 7.49 6.44 7.49 6.44 C 7.49 6.44 0.87 0 0.87 0 Z M -0.01 10.16 C -0.01 10.16 -0.01 1 -0.01 1 C -0.01 1 4.43 4.96 4.43 4.96 C 4.43 4.96 -0.01 10.16 -0.01 10.16 Z M 7.48 7.59 C 7.48 7.59 9.9 5.77 9.9 5.77 C 9.9 5.77 13.99 10.99 13.99 10.99 C 13.99 10.99 1.09 10.99 1.09 10.99 C 1.09 10.99 5.15 5.83 5.15 5.83 C 5.15 5.83 7.48 7.59 7.48 7.59 Z" />
</svg>