<svg height="16" width="11" xmlns:xlink="http://www.w3.org/1999/xlink" xmlns="http://www.w3.org/2000/svg" viewBox="0 0 11 16">
    <path fill="#bcbcbc" fill-rule="evenodd" d="M 2.57 4.82 C 2.57 3.13 3.98 1.76 5.7 1.76 C 7.43 1.76 8.83 3.13 8.83 4.82 C 8.83 6.51 7.43 7.88 5.7 7.88 C 3.98 7.88 2.57 6.51 2.57 4.82 Z M 0.38 5.2 C 0.38 6.48 1.97 9.18 1.97 9.18 C 1.97 9.18 5.7 15.31 5.7 15.31 C 5.7 15.31 9.22 9.18 9.22 9.18 C 9.22 9.18 11.02 6.47 11.02 5.2 C 11.02 2.33 8.64 0 5.7 0 C 2.76 0 0.38 2.33 0.38 5.2 Z" />
</svg>