<svg height="23" width="23" xmlns:xlink="http://www.w3.org/1999/xlink" xmlns="http://www.w3.org/2000/svg" viewBox="0 0 23 23">
    <path fill="#bdbcbc" fill-rule="evenodd" d="M 11.25 0.48 C 5.27 0.48 0.42 5.33 0.42 11.3 C 0.42 17.28 5.27 22.12 11.25 22.12 C 17.22 22.12 22.07 17.28 22.07 11.3 C 22.07 5.33 17.22 0.48 11.25 0.48 Z M 14.11 11.26 C 14.11 11.26 12.24 11.26 12.24 11.26 C 12.24 14.25 12.24 17.94 12.24 17.94 C 12.24 17.94 9.46 17.94 9.46 17.94 C 9.46 17.94 9.46 14.29 9.46 11.26 C 9.46 11.26 8.14 11.26 8.14 11.26 C 8.14 11.26 8.14 8.9 8.14 8.9 C 8.14 8.9 9.46 8.9 9.46 8.9 C 9.46 8.9 9.46 7.37 9.46 7.37 C 9.46 6.27 9.98 4.57 12.26 4.57 C 12.26 4.57 14.32 4.57 14.32 4.57 C 14.32 4.57 14.32 6.86 14.32 6.86 C 14.32 6.86 13.07 6.86 12.83 6.86 C 12.58 6.86 12.24 6.99 12.24 7.51 C 12.24 7.51 12.24 8.9 12.24 8.9 C 12.24 8.9 14.36 8.9 14.36 8.9 C 14.36 8.9 14.11 11.26 14.11 11.26 Z" />
</svg>