<?xml version="1.0" encoding="utf-8"?>
<!-- Generator: Avocode 2.6.0 - http://avocode.com -->
<svg height="23" width="22" xmlns:xlink="http://www.w3.org/1999/xlink" xmlns="http://www.w3.org/2000/svg" viewBox="0 0 22 23">
    <path fill="#bdbcbc" fill-rule="evenodd" d="M 10.8 22.12 C 4.83 22.12 -0.02 17.28 -0.02 11.3 C -0.02 5.33 4.83 0.48 10.8 0.48 C 16.78 0.48 21.62 5.33 21.62 11.3 C 21.62 17.28 16.78 22.12 10.8 22.12 Z M 16.8 11.53 C 16.8 8.12 14.04 5.35 10.62 5.35 C 10.26 5.35 9.91 5.38 9.57 5.44 C 9.01 5.09 8.36 4.89 7.66 4.89 C 5.68 4.89 4.07 6.5 4.07 8.48 C 4.07 9.14 4.25 9.76 4.57 10.29 C 4.48 10.69 4.44 11.11 4.44 11.53 C 4.44 14.95 7.21 17.71 10.62 17.71 C 11.01 17.71 11.39 17.68 11.75 17.61 C 12.26 17.88 12.84 18.04 13.45 18.04 C 15.43 18.04 17.03 16.43 17.03 14.45 C 17.03 13.88 16.9 13.34 16.66 12.86 C 16.75 12.43 16.8 11.99 16.8 11.53 Z M 12.54 15.44 C 11.99 15.66 11.35 15.78 10.61 15.78 C 9.72 15.78 8.97 15.62 8.39 15.31 C 7.98 15.09 7.63 14.79 7.37 14.41 C 7.11 14.03 6.98 13.66 6.98 13.3 C 6.98 13.07 7.07 12.87 7.24 12.71 C 7.41 12.55 7.62 12.47 7.88 12.47 C 8.09 12.47 8.28 12.53 8.43 12.66 C 8.57 12.78 8.69 12.96 8.79 13.19 C 8.9 13.44 9.02 13.65 9.14 13.82 C 9.26 13.98 9.44 14.11 9.66 14.22 C 9.89 14.33 10.19 14.38 10.56 14.38 C 11.07 14.38 11.49 14.27 11.8 14.06 C 12.11 13.85 12.26 13.59 12.26 13.28 C 12.26 13.04 12.18 12.85 12.02 12.7 C 11.86 12.54 11.63 12.42 11.36 12.33 C 11.08 12.25 10.7 12.15 10.23 12.05 C 9.59 11.92 9.04 11.75 8.61 11.57 C 8.17 11.38 7.81 11.12 7.55 10.79 C 7.28 10.46 7.15 10.04 7.15 9.55 C 7.15 9.09 7.29 8.67 7.57 8.3 C 7.84 7.94 8.25 7.66 8.77 7.47 C 9.28 7.28 9.89 7.18 10.58 7.18 C 11.13 7.18 11.62 7.25 12.02 7.37 C 12.43 7.5 12.77 7.67 13.04 7.88 C 13.32 8.09 13.52 8.32 13.64 8.56 C 13.77 8.8 13.84 9.03 13.84 9.26 C 13.84 9.49 13.75 9.69 13.59 9.86 C 13.42 10.04 13.2 10.13 12.95 10.13 C 12.72 10.13 12.54 10.07 12.42 9.96 C 12.3 9.86 12.18 9.7 12.05 9.47 C 11.89 9.18 11.71 8.95 11.5 8.78 C 11.29 8.62 10.94 8.54 10.46 8.54 C 10.02 8.54 9.66 8.63 9.39 8.81 C 9.13 8.98 9.01 9.17 9.01 9.4 C 9.01 9.54 9.05 9.66 9.13 9.76 C 9.22 9.87 9.34 9.96 9.5 10.04 C 9.66 10.12 9.83 10.19 10 10.23 C 10.17 10.28 10.46 10.35 10.85 10.44 C 11.35 10.55 11.81 10.67 12.22 10.8 C 12.63 10.93 12.99 11.09 13.28 11.28 C 13.57 11.47 13.81 11.72 13.97 12.02 C 14.14 12.32 14.23 12.68 14.23 13.11 C 14.23 13.62 14.08 14.08 13.79 14.49 C 13.51 14.89 13.08 15.21 12.54 15.44 Z" />
</svg>