<?xml version="1.0" encoding="utf-8"?>
<!-- Generator: Avocode 2.6.0 - http://avocode.com -->
<svg height="23" width="23" xmlns:xlink="http://www.w3.org/1999/xlink" xmlns="http://www.w3.org/2000/svg" viewBox="0 0 23 23">
    <path fill="#bdbcbc" fill-rule="evenodd" d="M 11.37 0.48 C 5.4 0.48 0.55 5.33 0.55 11.3 C 0.55 17.28 5.4 22.12 11.37 22.12 C 17.35 22.12 22.2 17.28 22.2 11.3 C 22.2 5.33 17.35 0.48 11.37 0.48 Z M 17.35 11.43 C 17.22 12.09 16.89 12.78 16.37 13.5 C 15.24 14.88 13.87 15.79 12.26 16.23 C 12.26 16.23 12.23 16.23 12.23 16.23 C 10.56 16.68 8.89 16.64 7.23 16.12 C 5.77 15.57 4.59 14.69 3.7 13.47 C 4.59 14.17 5.4 14.52 6.16 14.52 C 6.16 14.52 6.18 14.51 6.18 14.51 C 7.43 14.59 8.5 14.2 9.38 13.34 C 9.39 13.33 9.39 13.33 9.39 13.32 C 9.39 13.32 9.37 13.29 9.37 13.29 C 8.86 13.31 8.51 13.16 8.32 12.82 C 8.26 12.6 8.32 12.41 8.48 12.24 C 8.57 12.14 8.71 12.04 8.89 11.95 C 7.99 11.98 7.37 11.67 7.01 11.01 C 7.28 10.72 7.63 10.58 8.05 10.61 C 8.05 10.61 8.05 10.59 8.05 10.59 C 6.98 10.3 6.42 9.78 6.37 9.02 C 6.64 8.94 6.93 8.9 7.22 8.9 C 7.22 8.9 7.22 8.89 7.22 8.89 C 6.39 8.41 5.97 7.76 5.97 6.95 C 6.74 7.19 7.5 7.49 8.24 7.86 C 8.93 8.14 9.52 8.44 10.03 8.76 C 10.46 9 10.81 9.3 11.11 9.65 C 11.11 9.65 11.13 9.64 11.13 9.64 C 11.13 9.64 11.2 9.58 11.2 9.58 C 11.41 8.8 11.76 8.02 12.26 7.26 C 12.26 7.26 12.27 7.23 12.27 7.23 C 12.46 6.95 12.71 6.65 13.02 6.31 C 13.17 6.16 13.35 6.02 13.54 5.89 C 13.58 5.92 13.52 6.05 13.37 6.3 C 13.78 5.95 14.18 5.77 14.55 5.76 C 14.63 5.84 14.48 6 14.11 6.23 C 14.41 6.12 14.74 6.05 15.09 6 C 15.25 6.02 15.3 6.1 15.26 6.24 C 15.13 6.41 14.71 6.57 14 6.73 C 14 6.73 13.99 6.73 13.99 6.73 C 13.99 6.73 14.01 6.78 14.01 6.78 C 14.79 6.76 15.47 7 16.05 7.52 C 16.06 7.53 16.07 7.54 16.08 7.54 C 16.77 8.2 17.16 8.93 17.27 9.73 C 17.88 9.95 18.49 9.95 19.12 9.71 C 18.95 10.17 18.42 10.44 17.53 10.54 C 17.52 10.53 17.52 10.53 17.52 10.54 C 17.52 10.54 17.52 10.62 17.52 10.62 C 18.34 10.78 18.89 10.81 19.17 10.72 C 19.17 10.72 19.18 10.73 19.18 10.73 C 18.8 11.22 18.19 11.45 17.35 11.43 Z" />
</svg>